HIERARCHY
ROOT Hips
{
    OFFSET 0.000000 0.000000 0.000000
    CHANNELS 6 Xposition Yposition Zposition Zrotation Xrotation Yrotation
    JOINT Spine
    {
        OFFSET -0.000000 14.517291 0.000000
        CHANNELS 3 Zrotation Xrotation Yrotation
        JOINT Spine1
        {
            OFFSET -0.000000 37.558300 0.000000
            CHANNELS 3 Zrotation Xrotation Yrotation
            JOINT Neck
            {
                OFFSET -0.000000 37.404057 3.400369
                CHANNELS 3 Zrotation Xrotation Yrotation
                JOINT Head
                {
                    OFFSET -0.000000 24.785618 -3.540803
                    CHANNELS 3 Zrotation Xrotation Yrotation
                    End Site
                    {
                        OFFSET -0.000000 35.408028 0.000000
                    }
                }
            }
            JOINT LeftShoulder
            {
                OFFSET 6.992933 33.973492 -0.192664
                CHANNELS 3 Zrotation Xrotation Yrotation
                JOINT LeftArm
                {
                    OFFSET 21.527611 0.000000 0.000000
                    CHANNELS 3 Zrotation Xrotation Yrotation
                    JOINT LeftForeArm
                    {
                        OFFSET 56.353916 0.000000 0.000000
                        CHANNELS 3 Zrotation Xrotation Yrotation
                        JOINT LeftHand
                        {
                            OFFSET 47.774071 0.000000 0.000000
                            CHANNELS 3 Zrotation Xrotation Yrotation
                            End Site
                            {
                                OFFSET 26.556021 0.000000 0.000000
                            }
                        }
                    }
                }
            }
            JOINT RightShoulder
            {
                OFFSET -7.065357 33.973492 -0.192664
                CHANNELS 3 Zrotation Xrotation Yrotation
                JOINT RightArm
                {
                    OFFSET -21.527611 0.000000 0.000000
                    CHANNELS 3 Zrotation Xrotation Yrotation
                    JOINT RightForeArm
                    {
                        OFFSET -56.353916 0.000000 0.000000
                        CHANNELS 3 Zrotation Xrotation Yrotation
                        JOINT RightHand
                        {
                            OFFSET -47.774071 0.000000 0.000000
                            CHANNELS 3 Zrotation Xrotation Yrotation
                            End Site
                            {
                                OFFSET -26.556021 0.000000 0.000000
                            }
                        }
                    }
                }
            }
        }
    }
    JOINT LeftUpLeg
    {
        OFFSET 17.704014 0.000000 0.000000
        CHANNELS 3 Zrotation Xrotation Yrotation
        JOINT LeftLeg
        {
            OFFSET -0.000000 -81.181816 0.000000
            CHANNELS 3 Zrotation Xrotation Yrotation
            JOINT LeftFoot
            {
                OFFSET -0.000000 -62.821102 0.000000
                CHANNELS 3 Zrotation Xrotation Yrotation
                JOINT LeftToeBase
                {
                    OFFSET -0.000000 -11.507608 26.556021
                    CHANNELS 3 Zrotation Xrotation Yrotation
                    End Site
                    {
                        OFFSET -0.000000 0.000000 7.081605
                    }
                }
            }
        }
    }
    JOINT RightUpLeg
    {
        OFFSET -17.704014 0.000000 0.000000
        CHANNELS 3 Zrotation Xrotation Yrotation
        JOINT RightLeg
        {
            OFFSET -0.000000 -81.181816 0.000000
            CHANNELS 3 Zrotation Xrotation Yrotation
            JOINT RightFoot
            {
                OFFSET -0.000000 -62.821102 0.000000
                CHANNELS 3 Zrotation Xrotation Yrotation
                JOINT RightToeBase
                {
                    OFFSET -0.000000 -11.507608 26.556021
                    CHANNELS 3 Zrotation Xrotation Yrotation
                    End Site
                    {
                        OFFSET -0.000000 0.000000 7.081605
                    }
                }
            }
        }
    }
}
MOTION
Frames:    6
Frame Time:    0.008333
-14.038362    152.046783    -96.913078    2.734512    -6.927827    46.864040    -2.796723    -0.255760    -1.314767    -1.093567    1.234161    -0.426053    -1.366540    4.936357    -18.728710    15.768580    2.738119    -17.569447    3.388283    6.772720    -14.577394    -29.033760    11.516438    -59.319542    0.637153    -32.634636    -105.403656    -11.211311    -30.160362    -20.766678    1.888274    12.817350    -6.444420    36.429005    18.490162    42.359283    -13.329168    0.344462    32.113529    -26.983486    -3.294050    30.459593    19.328274    -1.657503    -5.427893    -18.708395    40.540054    -20.613867    7.014995    -31.152870    50.427219    0.000000    0.000000    0.000000    -23.697577    -15.154548    -25.010971    11.363620    32.124695    -19.286921    7.388271    6.040958    -7.855045    0.000000    0.000000    0.000000    
-14.054453    152.048065    -96.908524    2.741297    -6.932710    46.890652    -2.799341    -0.253834    -1.320447    -1.077994    1.248672    -0.427971    -1.390796    4.939613    -18.728693    15.802504    2.728976    -17.561794    3.377463    6.866157    -14.537188    -28.987558    11.823491    -59.121021    0.178111    -31.970234    -105.089752    -11.294682    -29.963333    -21.059929    1.886001    12.811476    -6.438614    36.449314    18.469496    42.359821    -13.325410    0.363406    32.125210    -26.989059    -3.280649    30.476114    19.332981    -1.667038    -5.447114    -18.704939    40.544682    -20.627666    6.998538    -31.155991    50.430222    0.000000    0.000000    0.000000    -23.701496    -15.142116    -25.028650    11.370596    32.133446    -19.310661    7.386278    6.037823    -7.845007    0.000000    0.000000    0.000000    
-14.071497    152.052383    -96.908577    2.744468    -6.936625    46.908970    -2.779988    -0.251001    -1.338104    -1.069280    1.282486    -0.433653    -1.462061    4.861986    -18.729397    15.837902    2.799680    -17.559729    3.332133    6.963435    -14.425558    -28.870420    12.100055    -58.988594    -0.156059    -31.319433    -104.755714    -11.216460    -29.705538    -20.887497    1.825857    12.797668    -6.453486    36.491821    18.502850    42.415066    -13.357698    0.362119    32.144417    -26.958332    -3.263777    30.486124    19.336245    -1.674073    -5.454978    -18.689247    40.545330    -20.661261    6.989744    -31.155846    50.442581    0.000000    0.000000    0.000000    -23.699060    -15.138404    -25.036905    11.362545    32.142727    -19.310818    7.406388    6.035770    -7.843479    0.000000    0.000000    0.000000    
-14.088562    152.054199    -96.907928    2.751073    -6.939072    46.923279    -2.805485    -0.246518    -1.312708    -1.026874    1.270191    -0.425734    -1.468115    4.902405    -18.743849    15.851060    2.779975    -17.570633    3.309678    7.057039    -14.449012    -28.887169    12.337573    -58.749008    -0.597174    -30.544514    -104.426308    -11.255906    -29.416315    -20.783573    1.846729    12.801422    -6.458824    36.489658    18.508455    42.368095    -13.186637    -0.087616    32.517235    -26.708178    -3.373322    29.425573    19.338190    -1.677662    -5.440104    -18.667015    40.548786    -20.697920    6.986318    -31.138456    50.441280    0.000000    0.000000    0.000000    -23.697456    -15.135003    -25.051191    11.355546    32.150150    -19.311827    7.393743    6.032578    -7.845557    0.000000    0.000000    0.000000    
-14.104719    152.058105    -96.906876    2.755151    -6.942289    46.939697    -2.802252    -0.246677    -1.309265    -1.015646    1.277172    -0.424608    -1.471486    4.898516    -18.749020    15.839186    2.787912    -17.578083    3.287450    7.122926    -14.422732    -28.866549    12.616200    -58.534073    -1.110639    -29.808239    -104.138199    -11.134007    -29.284290    -20.558788    1.838086    12.800711    -6.459469    36.520531    18.492125    42.382381    -13.383321    0.368242    32.168209    -26.932611    -3.241914    30.494766    19.345936    -1.681240    -5.454289    -18.671690    40.538223    -20.697205    6.983282    -31.122009    50.437614    0.000000    0.000000    0.000000    -23.691414    -15.128489    -25.061989    11.343432    32.149048    -19.326033    7.397213    6.042376    -7.826269    0.000000    0.000000    0.000000    
-14.118499    152.060242    -96.905663    2.761859    -6.943835    46.951305    -2.803287    -0.242249    -1.296306    -1.007295    1.275362    -0.420502    -1.479780    4.895681    -18.755383    15.849903    2.807069    -17.585318    3.268745    7.180280    -14.415350    -28.909369    12.903931    -58.298458    -1.585571    -29.110497    -103.877892    -11.095374    -29.152431    -20.129932    1.845210    12.801113    -6.471437    36.551537    18.465281    42.367443    -13.151076    -0.043563    32.542763    -26.738953    -3.343513    29.419043    19.347502    -1.680579    -5.448737    -18.658445    40.535984    -20.725584    6.976523    -31.124222    50.443371    0.000000    0.000000    0.000000    -23.692629    -15.119390    -25.059807    11.350768    32.144222    -19.360167    7.389901    6.040071    -7.803835    0.000000    0.000000    0.000000    
